<svg xmlns="http://www.w3.org/2000/svg" viewBox="0 0 566.52 451.87"><defs><style>.cls-1{fill:#0377a3;}.cls-2{fill:#0098b4;}.cls-3{fill:#01b6c0;}.cls-4{fill:#4dc0b9;}.cls-5{fill:#57beb4;}.cls-6{fill:#a3c599;}.cls-7{fill:#dcca73;}.cls-8{fill:#f8b92e;}.cls-9{fill:#fc9e12;}.cls-10{fill:#fc8402;}</style></defs><g id="Layer_2" data-name="Layer 2"><g id="Layer_1-2" data-name="Layer 1"><path class="cls-1" d="M.56,245.68a274.37,274.37,0,0,1-.17-32.19c3.41-63,10.45-122.15,46.76-173.66C74.84.55,117.13-9.92,160.58,9.51c28.35,12.67,47.34,37,71.23,55.26C263.22,88.72,319.57,84.53,347,55,379.62,19.77,415.79-7.52,467.85,2.62c27.37,5.32,43.47,25.53,57.32,47.32,27.9,43.87,35.63,93.37,39.76,144.08,4.59,56.35-.55,111.77-17.95,165.18-14.16,43.47-48.93,97.07-103.08,92.39-35.2-3-61.92-19.72-85.53-44.27-42.82-44.53-91.66-49.29-138.88-10.74-24.74,20.21-45.4,46.58-78.65,52.38C80.48,459.5,37.81,425.9,18,353.51a527.78,527.78,0,0,1-13.3-62.82C2.4,275.33,1.46,259.77.56,245.68Z"/><path class="cls-2" d="M532.56,233c-1.47,43.68-7.69,91.81-31.61,136.64-26.46,49.59-75.76,63.19-129.75,23.22-60.28-44.64-110.76-44.92-172.7-1.63-67.91,47.48-116.38,29-144.92-51C20.78,248.28,23.71,156,74.69,69.79,99.35,28.11,144.54,25.54,197.86,59c27.92,17.54,53.56,41.29,89.66,38.87,33.63-2.26,59.17-23.28,85.58-41.2C444.51,8.24,495.43,49,518.3,123.44,528.67,157.22,532.23,192,532.56,233Z"/><path class="cls-3" d="M500,221c-1.41,52-7.75,95.81-36.17,133.37-22.3,29.48-59.18,34.39-101.08,13.83-32.68-16-64.24-39.69-103.53-25.66-24.92,8.91-47.92,23-72.51,33-44.44,18.05-83-1.34-102.41-56.27C57.49,243.59,57.59,168,102.6,97.87c21-32.65,67.39-36.52,110-9.2,46,29.53,89,30.72,137.37,2.7C426.69,47,483.2,80.79,495.33,174.68,497.6,192.26,498.9,210,500,221Z"/><path class="cls-4" d="M387.49,351l-5.06,0c-3.4-1.55-7.12-1.23-10.69-1.71a69.47,69.47,0,0,1-17.2-4.93c-3.24-1.33-3.37-3.38-.37-5.33a16.56,16.56,0,0,1,10.55-2.47c9.38.83,17.89-1.18,25.22-7.09a91.73,91.73,0,0,1,16.77-10.79c4-2,7.1-6.94,11.27-9.47,9.88-6,10.16-16.86,13.89-25.9a51.41,51.41,0,0,0,3.37-12c.15-1,.8-2.66-.66-3-.93-.2-1,1.46-1.3,2.35a21.2,21.2,0,0,1-1.35,3.75c-.88,1.5-1.83,3-3.9,1.57-1.11-1.74-.65-3.56-.1-5.3A144.8,144.8,0,0,0,434.39,228c.13-24.69-3.51-48.82-16.71-70.38-10.38-16.93-25-27.8-45.49-29.38-9.93-.76-19.55,1-29,3.74-5.27,1.54-10.41,3.47-15.64,5.14-2,.65-4.09,1.54-6.3.68-2.06-3.44,1.16-3.84,2.94-4.59a220,220,0,0,1,21.7-7.25c.94-.29,2.53-.24,2.64-1,.21-1.37-1.52-1.37-2.41-2-2.66-1.79-7.17-2.21-7.13-6.12,0-4.16,5-3.51,7.52-5.31,3-2.13,7.07-1.92,9.95-4.36,44.95-10.66,73.47-2.23,87,25.71a3,3,0,0,0,1.05,1.23l1,1.81c.46.66.27,1.62,1,2.17v0c.5.59.31,1.52,1,2v0c.5.59.31,1.52,1,2h0c.5.58.31,1.51,1,2h0c.5.58.31,1.51,1,2h0c1.28,2.21,1.89,4.71,3,7h0c7.06,17.57,9.77,36,11.58,54.75a223.66,223.66,0,0,1-2,57.45,143.6,143.6,0,0,1-7.56,28.84h0c-1.39,3.31-2.19,6.85-4,10h0c-1.09,1.5-.88,3.53-2,5h0a3.66,3.66,0,0,0-1,1h0c-.69.48-.5,1.4-1,2h0c-1,.77-.18,2.17-1,3h0c-1.1.73-1.34,2-2,3h0c-1.08.73-1.33,2-2,3l0,0c-1.11.75-1.37,2.05-2,3.09l-1.85,1.92c-1.24.64-1.42,2-2.17,3l-5.93,5.95c-1,.74-2.38.93-3,2.14l-1.92,1.88c-1,.66-2.33.92-3.09,2l0,0a133.34,133.34,0,0,1-15,6.66C401,350.09,394.27,350.67,387.49,351Z"/><path class="cls-4" d="M136.32,335.15c-33.91-34.46-38-78-36.09-122.73,1.14-26.61,6.57-52.72,20.33-76.28,22.12-37.9,67.88-46.84,106.94-20.91,1.64,4.61-1.77,5.75-4.88,6.86s-6.25.51-9.33,1.15c-.52.11-1.21-.14-1.56.52a5.37,5.37,0,0,0,1.42.35c2.59.51,5.27.8,7.68,1.9,1.89.85,4.33,1.69,2.46,4.65-1.95,1.05-3.93.51-5.85,0-5.69-1.47-11.47-1.66-17.32-1.84-23.6-.71-40,11.09-51.44,30.34-10.6,17.82-14.84,37.67-15.38,58.3-.46,17.56,1,34.93,5.92,51.88.56,1.92,1,3.92-.43,5.72-3.51.21-3.81-2.77-4.5-4.93a141,141,0,0,1-5.51-27.86,169.73,169.73,0,0,1,1.84-49.19c.2-1.1.8-2.82-.3-3.17s-1.55,1.44-2,2.42c-1.74,3.64-3.07,7.55-2.84,11.54.62,10.82-1.81,21.5-1.22,32.31.45,8.3,1.4,16.58,1.16,24.91a3.14,3.14,0,0,0,.16,1.48c5,9.63,6.62,20.54,11.66,30.13.77,1.46,2,2.76,2.4,4.36,1.25,4.78,3.89,8.59,7.09,12.34,4.54,5.3,8.55,11,14.66,14.78,1.94,1.19,2.73,3.3,3.57,5.3,1.88,4.42,4.71,7.59,9.89,7.93a8.07,8.07,0,0,1,3.3,1.07c3.79,2.13,4.14,6,.5,8.33-4.24,2.77-8.69,4.72-14.08,2.84-4.06-1.41-8.38-2.1-12.08-4.51h0c-.49-.69-1.42-.5-2-1h0c-.76-1-2.18-.18-3-1v0c-.73-1.09-2-1.34-3-2v0a11.53,11.53,0,0,0-2-2h0a30.81,30.81,0,0,1-4-3l0,0C137.94,335.42,137,335.63,136.32,335.15Z"/><path class="cls-5" d="M152.47,345.15c4.64,1.24,9.35,3.65,13.89,3.37s12.2-2.3,13-5.17c1.65-5.56-6.22-2.64-8.53-5.13-13.66-14.72-29-28.14-37-47.35C120,257.93,119.26,224.24,127.53,190c.36-1.49,2.79-2.49,4.26-3.72.29,1.68,1.06,3.43.82,5-4.43,28.41-5.65,56.56,6.22,83.76,2.88.51,3.26,3.12,4.11,5.16a97.79,97.79,0,0,0,14.57,24.35c8.23,10.05,19,15.94,31.53,18.81,14.67,3.36,28.76.73,42.5-4.55,9.17-3.52,18.2-7.42,27.64-10.2,17.5-5.16,34.88-4,52.16,1.19a13.52,13.52,0,0,1,5.23,2.82,4.79,4.79,0,0,0,4.29,2,7.46,7.46,0,0,1,3.92,1.53,6.51,6.51,0,0,0,6,2.48,7.53,7.53,0,0,1,3.87,1.41,5.66,5.66,0,0,0,4.64,2,9.7,9.7,0,0,1,1.94.14,12.59,12.59,0,0,1,1.82.51,12.44,12.44,0,0,1,1.68.71,6.53,6.53,0,0,0,2.25.64,8.48,8.48,0,0,1,1.79.36,6.19,6.19,0,0,0,4.32.26,13.08,13.08,0,0,1,6.45.54,13.79,13.79,0,0,0,12.64.11,7.43,7.43,0,0,1,3.61-.47c6.4.62,12-1.74,17.42-4.7a5.9,5.9,0,0,1,1.06-.8c1.77-.75,3.61-1.42,4.51-3.35,6.79-6.06,12.43-13.22,18.75-19.73,2-.95,2.49-2.78,2.74-4.75a5.5,5.5,0,0,1,1.37-2.28c2.69-3.35,4.87-6.91,5-11.38.2-.94.4-1.88,1.69-1.79l7.21-11.66c3.92,9.85-1,18.52-4.82,26.63C416.36,321.67,391,336.4,358,339.18c-1.69.14-3.24,1.84-4.86,2.82a26.8,26.8,0,0,0,4.56,2.25c8.23,2.33,16.5,4.52,24.76,6.75-20.51.71-38.11-8.57-55.24-17.69-38.72-20.62-73.39-7.13-108.81,9.49-19,8.94-39.78,13.34-61,6C155.55,348.16,154.1,346.4,152.47,345.15Z"/><path class="cls-5" d="M223.48,129.94c-1.72-1-3.32-2.38-5.17-2.94-4-1.2-8-2-12.07-2.93,4.47-1,8.92-2.12,13.43-2.88,3.77-.63,7.23-1.32,7.83-6,44.75,25.63,87,11.43,129-8-2.66,1.37-5.36,2.68-8,4.14-3,1.65-5.84,3.44-8.76,5.17,2.63,1.79,5.22,3.64,7.89,5.35,2,1.27,4.05,2.36,6.08,3.53-2.35.63-4.75,1.09-7,1.93-8.72,3.26-17.39,6.64-26.08,10l-.47.51c-3,1.14-6.22,1.46-9,3.12a9.14,9.14,0,0,1-1.36.48,19.9,19.9,0,0,0-7.56,2.74c-11.27,3.33-22.65,3.26-34.07,1a255.22,255.22,0,0,1-40.28-11.58C226,132.88,224,132.32,223.48,129.94Z"/><path class="cls-5" d="M455.51,294.13c14.3-47.23,12.83-94.23-2-141C467.17,184.18,468.15,217,465.8,250,464.72,265.13,462.82,280.34,455.51,294.13Z"/><path class="cls-5" d="M387.49,351l35-9.9C411.91,348.25,400.65,353,387.49,351Z"/><path class="cls-5" d="M451.51,304.13l4-10Z"/><path class="cls-5" d="M453.5,153.1c-1-2.33-2-4.67-3-7C451.5,148.43,452.5,150.77,453.5,153.1Z"/><path class="cls-5" d="M138.45,336.16l4,3Z"/><path class="cls-5" d="M449.5,309.14l2-5Z"/><path class="cls-5" d="M427.49,337.25l3-2.14Z"/><path class="cls-5" d="M436.46,329.16l2.17-3C437.91,327.15,437.19,328.16,436.46,329.16Z"/><path class="cls-5" d="M444.48,318.14l2-3Z"/><path class="cls-5" d="M144.46,341.14l3,2Z"/><path class="cls-5" d="M442.49,321.15l2-3Z"/><path class="cls-5" d="M440.48,324.22l2-3.09Z"/><path class="cls-5" d="M422.48,341.15l3.09-2Z"/><path class="cls-5" d="M142.46,339.15l2,2Z"/><path class="cls-5" d="M446.48,315.14l1-3Z"/><path class="cls-5" d="M147.47,343.12l3,1Z"/><path class="cls-5" d="M447.5,140.11l-1-2C446.83,138.77,447.17,139.44,447.5,140.11Z"/><path class="cls-5" d="M136.32,335.15l2.16,1Z"/><path class="cls-5" d="M450.5,146.1l-1-2C449.83,144.76,450.17,145.43,450.5,146.1Z"/><path class="cls-5" d="M447.51,312.12l1-2Z"/><path class="cls-5" d="M446.5,138.11l-1-2.17Z"/><path class="cls-5" d="M449.5,144.1c-.33-.67-.67-1.34-1-2C448.83,142.76,449.17,143.43,449.5,144.1Z"/><path class="cls-5" d="M448.5,142.1l-1-2Z"/><path class="cls-5" d="M150.48,344.15l2,1Z"/><path class="cls-5" d="M444.54,134.13l-1.05-1.23Z"/><path class="cls-5" d="M448.49,310.13l1-1Z"/><path class="cls-6" d="M223.48,129.94c25.6,8.85,50.87,19.78,79,12.43,2.51-1.33,5.54-.74,8-2.17l0,0c3.21-1.43,6.74-1.81,10-3l.08.09c17.3-5,34.13-13.41,52.75-10.54,36.13,5.56,60.35,38.76,62.3,82.44,1,22.81-.59,45.06-7.36,66.89l-.87,2c-.63,4.46-2.84,8.24-5.18,12l-.87,1.84c-1,1.75-1.21,4-3.25,5.12l-18.75,19.82c-1.1,1.95-3.34,2.11-5,3.21l0,0c-5.35,3.93-11.62,5.1-18,6l-4,.2a19.82,19.82,0,0,1-12.95-.14l-8-.06a4.17,4.17,0,0,1-3.05-1h-2a2.5,2.5,0,0,1-2-1l-2,0q-.48-.45-1-.87l-2-.15a7.45,7.45,0,0,1-5-2l-3.92-1c-2.08-.9-4.5-1.13-6.09-3l-3.9-1c-1.3-.76-3-.62-4.07-1.88-23.65-10.84-47.15-8.7-70.59.75-56.5,22.8-79.68,14.16-107.07-39.88-11.15-43.74-13.53-86.74,14.67-125.56C171.21,125.11,196.59,123.75,223.48,129.94Z"/><path class="cls-4" d="M376.43,326l18-6C389.52,325.32,383.24,326.48,376.43,326Z"/><path class="cls-4" d="M359.47,326.1l12.95.14C368.07,329.2,363.75,329.43,359.47,326.1Z"/><path class="cls-4" d="M422.24,290q2.58-6,5.18-12Q424.83,284.07,422.24,290Z"/><path class="cls-4" d="M324.46,317l6.09,3Z"/><path class="cls-4" d="M394.38,320l5-3.21Z"/><path class="cls-4" d="M334.47,321.09l5,2Z"/><path class="cls-4" d="M418.12,297l3.25-5.12Z"/><path class="cls-4" d="M316.49,314.18l4.07,1.88Z"/><path class="cls-4" d="M348.44,325.05l3.05,1Z"/><path class="cls-4" d="M344.47,324.1l2,1Z"/><path class="cls-4" d="M341.52,323.21l1,.87Z"/><path class="cls-4" d="M320.52,137.2l-10,3Z"/><path class="cls-4" d="M310.52,140.2l-8,2.17Z"/><path class="cls-7" d="M406.4,225.4c.06,46.59-18.81,75-55.09,77.37-19.4,1.26-39.25-7-59.09-9.42-24.14-2.93-46.59,8.1-70.12,10.51-30.76,3.15-52.06-19.22-60.17-62-8.61-45.42,12.19-84.94,49.11-93,13.25-2.89,25.64,1.71,38.1,5.16,26.88,7.46,53.21,4.2,79.53-3.37,40.55-11.67,75.75,16.85,76.83,61.78C405.61,217.45,406.18,222.4,406.4,225.4Z"/><path class="cls-8" d="M230.61,283c-26.49-2.76-47.33-33.69-42.87-63.65,5.9-39.69,31.1-59.18,68.28-49.34,27.45,7.27,53.33-4.2,80-1.91,27.12,2.32,47.15,34.1,42.2,66.83-5.07,33.53-27.63,53.52-54.48,48.29-23.74-4.79-47.5-6.35-71.37-.83C245.18,284.06,237.86,282.6,230.61,283Z"/><path class="cls-8" d="M230.61,283c31.05-1.53,62.11-10,93.13.22C292.71,275.2,261.65,284.41,230.61,283Z"/><path class="cls-9" d="M311.32,266.15c-22.87,0-46.12,2.6-68.5-.7-24-3.54-30.34-23.52-28-45.23,2.28-21.25,14.51-33.64,36.83-34.1,19.82-.4,39.63-.85,59.44-1,25.83-.16,40.73,15.33,40.33,42.36C351,253.53,337.19,266.56,311.32,266.15Z"/><path class="cls-10" d="M288.86,252.11c-44.24,0-61-15.66-45.62-39.16,16.23-24.73,43.17-13.23,65.5-11.75,13,.86,22.8,13.1,20.36,27.53C324.57,255.39,303.29,253,288.86,252.11Z"/></g></g></svg>